<svg id="Capa_1" data-name="Capa 1" xmlns="http://www.w3.org/2000/svg" viewBox="0 0 799.77 259.85"><defs><style>.cls-1{fill:#047f39;}.cls-2{fill:#8dbf24;}.cls-3{fill:#010101;}.cls-4{fill:#fff;}.cls-5{fill:#fefefe;}.cls-6{fill:none;}</style></defs><title>AGROPLACE</title><path class="cls-1" d="M548.12,389.22c-1,2.12-2.93,1-4.36,1-23.47.08-46.94,0-70.4.11a12.15,12.15,0,0,1-7.75-2.58Q409.12,346,352.53,304.39c-5.48-4-11-8.05-16.38-12.21-2.13-1.64-3.7-1.91-6.09-.14q-64.28,47.59-128.65,95a15.75,15.75,0,0,1-10,3.29c-22.8-.15-45.6-.08-68.4-.08h-7.07c6.09-4.55,11-8.24,15.93-11.88q49.53-36.53,99.07-73,43.53-32.06,87.09-64.06c10.36-7.59,20.39-7.29,31.25.71q77.4,57.06,154.75,114.2c6.54,4.83,13.41,9.24,19.35,14.85C532.18,376.34,541.13,381.44,548.12,389.22Z" transform="translate(69.01 -235.69)"/><path class="cls-2" d="M548.05,389.07c-7-5.46-14.8-9.87-21.52-15.74,2.71.54,2.54-1.51,2.89-3.16a98.81,98.81,0,0,1,13.42-32.65,29,29,0,0,1,10.06-9.93c2.63-1.5,5.54-11.22,4.12-13.69-1.16-2-2.77-.88-4.1-.13a44.52,44.52,0,0,0-17,17.45c-4.51,8.08-7.75,16.75-11,25.37-1.91,5-3.87,5.72-8.15,2-8.45-7.26-14.67-16.1-16.21-27.33-2.57-18.66-.58-36.71,10.16-52.79,7.43-11.13,19-16.31,31.28-20.38,13.4-4.44,26.94-8.53,40-13.87a32.83,32.83,0,0,0,10.57-7.39c.73-.73,1.46-1.51,2.62-1,.83.33.71,1.16.72,1.85.09,8.5,3.75,15.91,7.11,23.4,10,22.23,16.91,45,15.37,69.86-1.57,25.21-18.06,43.75-42.88,47.66a149.78,149.78,0,0,1-20.27,1.5C549.61,380.21,546.71,383.91,548.05,389.07Z" transform="translate(69.01 -235.69)"/><path class="cls-3" d="M102.87,459.26c-6.75,0-13.05-.14-19.34.06-2.88.1-4.25-.39-3.94-3.71.4-4.26-1.32-9.92.84-12.5s8.1-.75,12.37-.8c9.48-.12,19,.07,28.45-.11,2.83-.05,3.6.76,3.57,3.58q-.21,22,0,44c0,2.82-.94,3.11-3.54,3.66-8.56,1.82-9.08-4.5-10.54-10.21-16.86,14.9-35.43,15.19-54.49,6.87-17.73-7.73-28-27.44-25.18-46.21,3.17-21.49,17.73-36.53,38.21-39.61,17.14-2.58,32.66.47,45.86,12.47,2.91,2.64,3,4-.72,5.87a90.43,90.43,0,0,0-11.83,7.36c-2.59,1.86-4.14,1.69-6.62-.49-7.56-6.67-19.89-7.6-29-2.7-8.34,4.49-13.72,14.69-12.75,24.23,1.18,11.55,7.65,19.71,18,22.66C85.42,477.42,98.13,471.71,102.87,459.26Z" transform="translate(69.01 -235.69)"/><path class="cls-3" d="M271.24,495.25c-27.76,0-48.34-19.17-48.69-45.35-.35-25.67,19.29-45.61,45.92-46.61,24.57-.92,44.56,12.47,50,33.5C326.56,468.06,304.59,495.25,271.24,495.25Z" transform="translate(69.01 -235.69)"/><path class="cls-3" d="M219.1,493.24c-7.92,0-14.9-.11-21.88.07-2.41.06-3.53-.94-4.57-2.88-4-7.46-8.3-14.75-12.12-22.3-1.59-3.15-3.58-4-6.93-3.95-10,.2-10,.06-10,10.07,0,5.33-.12,10.66,0,16,.08,2.4-.64,3.14-3,3.07-5.82-.17-11.65-.13-17.47,0-2.1,0-2.86-.52-2.86-2.76q.1-41.2.06-82.41c0-1.22-.47-2.9,1.69-2.81,16.89.74,34.05-2.36,50.64,2.35,15.75,4.46,23.78,19.28,19.94,35.11A21.66,21.66,0,0,1,202.42,457c-3.69,2.13-3.12,3.69-1.22,6.7C207.2,473.15,212.86,482.86,219.1,493.24Z" transform="translate(69.01 -235.69)"/><path class="cls-3" d="M27.43,493.24c-7.48,0-14.47-.12-21.45.07-2.33.07-3.12-.89-3.78-2.86C.72,486.08.18,480-2.94,478c-3.43-2.22-9.31-.67-14.13-.7-6.15,0-12.31.08-18.46-.05-2.23,0-3.63.39-4.39,2.77-1.39,4.4-1.91,10.66-5,12.53-3.67,2.23-9.65.68-14.63.73-3,0-6,0-9.47,0,5.12-13.12,10.09-25.89,15.09-38.66,5.93-15.11,12-30.16,17.76-45.34,1.21-3.2,2.78-4.2,6.13-4.05,6.64.3,13.3.17,20,0,2.28,0,3.46.53,4.37,2.87C5.09,435.9,16,463.63,26.92,491.38,27.09,491.83,27.18,492.3,27.43,493.24Z" transform="translate(69.01 -235.69)"/><path class="cls-3" d="M571.32,493.24c-1.76,0-2.92,0-4.08,0-5.15-.08-11.4,1.59-15.12-.76-3.39-2.15-4.2-8.58-5.8-13.25-.79-2.28-1.85-3.06-4.25-3q-16.73.18-33.45,0c-2.36,0-3.54.71-4.33,2.91-1.65,4.69-2.31,11.34-5.68,13.38-3.92,2.38-10.31.69-15.62.76-1,0-2,0-3.66,0,3.65-9.24,7.17-18.09,10.65-27,7.46-19,15-37.93,22.26-57,1.19-3.1,2.66-4.4,6.11-4.11,6.11.51,13.66-2.24,18,1,4.06,3,4.78,10.56,7,16.11Z" transform="translate(69.01 -235.69)"/><path class="cls-3" d="M334.41,449.15c0-13.16.11-26.32-.08-39.47-.05-3.3.47-4.66,4.2-4.48,12.61.63,25.29-.86,37.88,1.05,19.23,2.91,30.07,18.35,26,37-2.6,11.82-13.64,20.56-27.71,22.13a125.1,125.1,0,0,1-17.94.58c-2.76-.09-3.75.64-3.66,3.55.21,6.65-.12,13.33.14,20,.12,3.17-.9,4-3.93,3.83-4.78-.31-11.1,1.55-14-.85s-.79-9.05-.86-13.82C334.31,468.81,334.41,459,334.41,449.15Z" transform="translate(69.01 -235.69)"/><path class="cls-3" d="M674,448.81c0-13.32.07-26.63-.06-39.94,0-2.7.53-3.68,3.48-3.65,16.13.15,32.26.1,48.39,0,2.31,0,3.45.23,3.53,3.12.33,12.65.46,12.65-12.11,12.65-7,0-14,.12-21-.06-2.88-.07-4.27.48-4.06,3.79.35,5.28-1.71,12.2.92,15.44s9.94.85,15.19,1c5,.18,10,.14,15,0,2.14-.06,2.73.57,2.86,2.77.74,13,.81,13-12.18,13-6,0-12,.11-18-.05-2.67-.06-4,.52-3.78,3.55a128.77,128.77,0,0,1,0,13.47c-.16,3,1,3.63,3.73,3.6,10.14-.14,20.29.11,30.42-.14,3.61-.09,4.4,1.11,4.37,4.51-.08,11.3,0,11.31-11.35,11.31-13.8,0-27.61-.11-41.4.08-3.27,0-4.12-.84-4.08-4.09C674.11,475.76,674,462.28,674,448.81Z" transform="translate(69.01 -235.69)"/><path class="cls-3" d="M622.88,495.25c-23.49-.08-41.85-13.83-47.16-35.31a45.34,45.34,0,0,1,37.1-55.69c16.78-2.67,32,.33,45.18,11.68,2.87,2.47,3.7,4.37-.51,6.06a3.24,3.24,0,0,0-.88.47c-5.81,4.65-10.5,6.52-18.2,1.06-11.9-8.44-29.59-4.55-38.42,6.1a31.19,31.19,0,0,0-.1,39.15c10.13,12.43,30.94,14.13,43.54,3.3,2.19-1.88,3.56-2.26,5.89-.6a84.81,84.81,0,0,0,9.33,5.73c2.51,1.33,2.43,2.28.53,4.24C651,489.91,637.07,495.29,622.88,495.25Z" transform="translate(69.01 -235.69)"/><path class="cls-3" d="M417.31,448.76c0-13.15.11-26.31-.08-39.47-.05-3.26.81-4.36,4.09-4.06,4.6.44,10.69-1.86,13.46.86s.76,8.81.78,13.42c.08,17.82.16,35.64-.06,53.46-.05,3.88,1.13,4.73,4.77,4.63,9.48-.25,19,0,28.46-.14,2.83,0,4.08.41,4.14,3.72.2,12.07.34,12.07-11.63,12.07-13.31,0-26.63-.12-39.94.08-3.28,0-4.12-.85-4.07-4.1C417.42,475.74,417.31,462.25,417.31,448.76Z" transform="translate(69.01 -235.69)"/><path class="cls-4" d="M271.51,424c-14.95,0-25.3,10.38-25.23,25.39.06,14.8,10.27,25.12,24.94,25.22,14.85.1,25.24-10.38,25.23-25.43C296.44,434.35,286.18,424,271.51,424ZM269,458.07c-10,2-22-8-18-19,2-5,9-7,14-10-5,3-12,5-14,10-4,11,8,21,18,19s10-13,7-22c-2-5-5-12-12-10v0c7-2,10,5,12,10C279,445.07,279,456.07,269,458.07Z" transform="translate(69.01 -235.69)"/><path class="cls-4" d="M163.61,435.63c0-10.28,0-10.26,10.21-10.26,3,0,6-.05,8.84,1,4.53,1.58,7.12,4.6,7.12,9.59s-2.32,8.13-7.06,9.51c-5.7,1.66-11.53.48-17.29.84-1.66.11-1.86-.85-1.83-2.18C163.64,441.27,163.61,438.45,163.61,435.63Z" transform="translate(69.01 -235.69)"/><path class="cls-5" d="M-20.69,423.88c4.33,12.63,8.26,24,12.16,35.45A6.75,6.75,0,0,1-8.44,461H-33.29C-29.16,448.81-25.09,436.82-20.69,423.88Z" transform="translate(69.01 -235.69)"/><path class="cls-5" d="M511.07,461.16c4.77-13,9.31-25.35,14.25-38.8,4.72,12.9,9,24.63,13.34,36.32.84,2.25,0,2.52-1.93,2.51C528.42,461.13,520.11,461.16,511.07,461.16Z" transform="translate(69.01 -235.69)"/><path class="cls-4" d="M353.12,435.36c0-3.83.1-7.67,0-11.49-.08-2.12.52-3,2.77-2.89,4.65.21,9.33,0,14,.31,8.75.56,14.19,5.72,14.51,13.43.34,8.37-4.31,14.12-13.14,15.23-5.25.66-10.64.18-16,.34-2.39.08-2.12-1.44-2.12-2.94C353.13,443.35,353.12,439.36,353.12,435.36Z" transform="translate(69.01 -235.69)"/><path class="cls-6" d="M-361.88,428.44" transform="translate(69.01 -235.69)"/></svg>